<?xml version="1.0" encoding="utf-8"?>
<!-- Generator: Adobe Illustrator 23.0.1, SVG Export Plug-In . SVG Version: 6.00 Build 0)  -->
<svg version="1.1" id="Ebene_1" xmlns="http://www.w3.org/2000/svg" xmlns:xlink="http://www.w3.org/1999/xlink" x="0px" y="0px"
	 viewBox="0 0 374.9 128.2" style="enable-background:new 0 0 374.9 128.2;" xml:space="preserve">
<style type="text/css">
	.st0{fill:none;stroke:#5FB34E;stroke-width:4;stroke-linecap:round;stroke-miterlimit:10;}
	.st1{fill:#5FB34E;}
	.st2{fill:#010202;}
	.st3{fill:none;stroke:#3B9B36;stroke-width:4;stroke-linecap:round;stroke-miterlimit:10;}
	.st4{fill:#3B9B36;}
</style>
<path class="st0" d="M270.4,19.4h76.3c11.9,0,21.6,9.7,21.6,21.6v60.4c0,11.9-9.7,21.6-21.6,21.6H50.3"/>
<g>
	<path class="st1" d="M82.2,79.3c0,1.5-0.3,2.9-0.8,4.2c-0.5,1.3-1.3,2.4-2.4,3.4c-1,0.9-2.4,1.7-3.9,2.2c-1.6,0.5-3.3,0.8-5.4,0.8
		c-2.4,0-4.4-0.3-5.9-1s-2.8-1.5-3.8-2.5c-0.9-1-1.6-2.1-2-3.3c-0.4-1.2-0.6-2.3-0.6-3.3c0-1,0.1-2,0.4-2.9c0.3-0.9,0.7-1.7,1.2-2.5
		c0.5-0.8,1.1-1.4,1.8-2.1c0.7-0.6,1.4-1.2,2.1-1.7c-1.6-1.1-2.8-2.3-3.6-3.6c-0.8-1.3-1.2-2.9-1.2-4.8c0-1.4,0.3-2.7,0.8-3.9
		c0.5-1.2,1.3-2.3,2.3-3.3c1-0.9,2.2-1.7,3.7-2.3c1.4-0.6,3-0.8,4.8-0.8c2.1,0,3.8,0.3,5.3,0.9c1.5,0.6,2.6,1.4,3.6,2.3
		c0.9,0.9,1.6,2,2,3.1c0.4,1.2,0.6,2.3,0.6,3.4c0,1.9-0.5,3.6-1.6,5.1c-1,1.5-2.3,2.7-3.6,3.5c2.1,1.1,3.6,2.4,4.6,3.9
		C81.7,75.6,82.2,77.3,82.2,79.3z M63.7,79.6c0,0.5,0.1,1.1,0.3,1.7c0.2,0.6,0.6,1.1,1,1.6c0.5,0.5,1.1,0.9,1.9,1.2
		c0.8,0.3,1.7,0.5,2.9,0.5c1,0,2-0.1,2.7-0.4c0.8-0.3,1.4-0.7,1.9-1.1c0.5-0.5,0.9-1,1.1-1.6c0.2-0.6,0.4-1.2,0.4-1.9
		c0-1-0.2-1.8-0.6-2.6s-0.9-1.4-1.7-1.9c-0.7-0.5-1.6-1-2.5-1.4c-1-0.4-2.1-0.8-3.3-1.1c-1.3,0.8-2.3,1.8-3,2.9
		C64.1,76.7,63.7,78,63.7,79.6z M75.2,61.7c0-0.5-0.1-1-0.3-1.5c-0.2-0.5-0.5-1-0.9-1.5c-0.4-0.5-1-0.8-1.7-1.2
		c-0.7-0.3-1.5-0.5-2.4-0.5c-0.9,0-1.8,0.1-2.4,0.4c-0.7,0.3-1.2,0.7-1.7,1.2c-0.4,0.5-0.7,1-0.9,1.5c-0.2,0.5-0.3,1.1-0.3,1.6
		c0,1.3,0.5,2.6,1.5,3.8c1,1.2,2.7,2.1,5,2.8c1.3-0.8,2.3-1.7,3-2.8C74.8,64.6,75.2,63.3,75.2,61.7z"/>
	<path class="st1" d="M112.3,70.9c0,6.1-1.1,10.8-3.4,14.1c-2.2,3.3-5.3,4.9-9.3,4.9c-4,0-7-1.6-9.3-4.9c-2.2-3.3-3.4-8-3.4-14.1
		c0-3,0.3-5.7,0.9-8.1c0.6-2.4,1.4-4.3,2.5-5.9s2.4-2.8,4-3.7c1.6-0.8,3.3-1.3,5.3-1.3c3.9,0,7,1.6,9.3,4.9
		C111.2,60.1,112.3,64.7,112.3,70.9z M105.7,70.9c0-1.9-0.1-3.7-0.3-5.3c-0.2-1.6-0.6-3.1-1-4.3c-0.5-1.2-1.1-2.2-1.9-2.9
		c-0.8-0.7-1.7-1-2.9-1c-1.2,0-2.1,0.3-2.9,1c-0.8,0.7-1.4,1.7-1.9,2.9c-0.5,1.2-0.8,2.6-1,4.3c-0.2,1.6-0.3,3.4-0.3,5.3
		s0.1,3.7,0.3,5.3c0.2,1.6,0.5,3.1,1,4.3c0.5,1.2,1.1,2.2,1.9,2.9c0.8,0.7,1.8,1,2.9,1c1.2,0,2.1-0.3,2.9-1c0.8-0.7,1.4-1.7,1.9-2.9
		c0.5-1.2,0.8-2.6,1-4.3C105.6,74.5,105.7,72.7,105.7,70.9z"/>
	<path class="st1" d="M142.1,70.9c0,6.1-1.1,10.8-3.4,14.1c-2.2,3.3-5.3,4.9-9.3,4.9c-4,0-7-1.6-9.3-4.9c-2.2-3.3-3.4-8-3.4-14.1
		c0-3,0.3-5.7,0.9-8.1c0.6-2.4,1.4-4.3,2.5-5.9s2.4-2.8,4-3.7c1.6-0.8,3.3-1.3,5.3-1.3c3.9,0,7,1.6,9.3,4.9
		C140.9,60.1,142.1,64.7,142.1,70.9z M135.5,70.9c0-1.9-0.1-3.7-0.3-5.3c-0.2-1.6-0.6-3.1-1-4.3c-0.5-1.2-1.1-2.2-1.9-2.9
		c-0.8-0.7-1.7-1-2.9-1c-1.2,0-2.1,0.3-2.9,1c-0.8,0.7-1.4,1.7-1.9,2.9c-0.5,1.2-0.8,2.6-1,4.3c-0.2,1.6-0.3,3.4-0.3,5.3
		s0.1,3.7,0.3,5.3c0.2,1.6,0.5,3.1,1,4.3c0.5,1.2,1.1,2.2,1.9,2.9c0.8,0.7,1.8,1,2.9,1c1.2,0,2.1-0.3,2.9-1c0.8-0.7,1.4-1.7,1.9-2.9
		c0.5-1.2,0.8-2.6,1-4.3C135.4,74.5,135.5,72.7,135.5,70.9z"/>
	<path class="st1" d="M176.6,78.7c0-1.2-0.2-2.2-0.7-3.1c-0.5-0.9-1.2-1.7-2.4-2.3c-1.1-0.6-2.7-1.1-4.6-1.4
		c-1.9-0.3-4.3-0.5-7.2-0.5c0.4-3.4,0.7-6.5,0.9-9.6c0.2-3,0.4-6.1,0.5-9.1h18.6v5.3h-13.2c0,0.6-0.1,1.3-0.1,2s-0.1,1.5-0.2,2.3
		c-0.1,0.8-0.1,1.5-0.2,2.2c-0.1,0.7-0.1,1.3-0.2,1.8c5.2,0.3,9,1.5,11.5,3.5c2.5,2.1,3.7,4.9,3.7,8.5c0,1.6-0.3,3.2-0.8,4.6
		c-0.6,1.4-1.4,2.6-2.6,3.6c-1.2,1-2.6,1.8-4.4,2.4c-1.7,0.6-3.8,0.9-6.1,0.9c-0.9,0-1.9-0.1-2.9-0.2c-1-0.1-1.9-0.3-2.8-0.5
		c-0.9-0.2-1.7-0.4-2.4-0.6c-0.7-0.2-1.2-0.4-1.6-0.6l1.2-5.3c0.7,0.3,1.8,0.7,3.2,1.1c1.4,0.4,3.1,0.6,5.1,0.6
		c1.4,0,2.5-0.1,3.5-0.4c1-0.3,1.8-0.7,2.4-1.2c0.6-0.5,1.1-1.1,1.3-1.8C176.5,80.2,176.6,79.4,176.6,78.7z"/>
	<path class="st1" d="M213.8,70.9c0,6.1-1.1,10.8-3.4,14.1c-2.2,3.3-5.3,4.9-9.3,4.9c-4,0-7-1.6-9.3-4.9c-2.2-3.3-3.4-8-3.4-14.1
		c0-3,0.3-5.7,0.9-8.1c0.6-2.4,1.4-4.3,2.5-5.9s2.4-2.8,4-3.7c1.6-0.8,3.3-1.3,5.3-1.3c3.9,0,7,1.6,9.3,4.9
		C212.7,60.1,213.8,64.7,213.8,70.9z M207.3,70.9c0-1.9-0.1-3.7-0.3-5.3c-0.2-1.6-0.6-3.1-1-4.3c-0.5-1.2-1.1-2.2-1.9-2.9
		c-0.8-0.7-1.7-1-2.9-1c-1.2,0-2.1,0.3-2.9,1c-0.8,0.7-1.4,1.7-1.9,2.9c-0.5,1.2-0.8,2.6-1,4.3c-0.2,1.6-0.3,3.4-0.3,5.3
		s0.1,3.7,0.3,5.3c0.2,1.6,0.5,3.1,1,4.3c0.5,1.2,1.1,2.2,1.9,2.9c0.8,0.7,1.8,1,2.9,1c1.2,0,2.1-0.3,2.9-1c0.8-0.7,1.4-1.7,1.9-2.9
		c0.5-1.2,0.8-2.6,1-4.3C207.2,74.5,207.3,72.7,207.3,70.9z"/>
	<path class="st1" d="M243.6,70.9c0,6.1-1.1,10.8-3.4,14.1c-2.2,3.3-5.3,4.9-9.3,4.9c-4,0-7-1.6-9.3-4.9c-2.2-3.3-3.4-8-3.4-14.1
		c0-3,0.3-5.7,0.9-8.1c0.6-2.4,1.4-4.3,2.5-5.9c1.1-1.6,2.4-2.8,4-3.7c1.6-0.8,3.3-1.3,5.3-1.3c3.9,0,7,1.6,9.3,4.9
		C242.5,60.1,243.6,64.7,243.6,70.9z M237,70.9c0-1.9-0.1-3.7-0.3-5.3c-0.2-1.6-0.6-3.1-1-4.3c-0.5-1.2-1.1-2.2-1.9-2.9
		c-0.8-0.7-1.7-1-2.9-1c-1.2,0-2.1,0.3-2.9,1c-0.8,0.7-1.4,1.7-1.9,2.9c-0.5,1.2-0.8,2.6-1,4.3c-0.2,1.6-0.3,3.4-0.3,5.3
		s0.1,3.7,0.3,5.3c0.2,1.6,0.5,3.1,1,4.3c0.5,1.2,1.1,2.2,1.9,2.9c0.8,0.7,1.8,1,2.9,1c1.2,0,2.1-0.3,2.9-1c0.8-0.7,1.4-1.7,1.9-2.9
		c0.5-1.2,0.8-2.6,1-4.3C236.9,74.5,237,72.7,237,70.9z"/>
	<path class="st1" d="M278.1,78.7c0-1.2-0.2-2.2-0.7-3.1c-0.5-0.9-1.2-1.7-2.4-2.3c-1.1-0.6-2.7-1.1-4.6-1.4
		c-1.9-0.3-4.3-0.5-7.2-0.5c0.4-3.4,0.7-6.5,0.9-9.6c0.2-3,0.4-6.1,0.5-9.1h18.6v5.3h-13.2c0,0.6-0.1,1.3-0.1,2
		c-0.1,0.8-0.1,1.5-0.2,2.3c-0.1,0.8-0.1,1.5-0.2,2.2c-0.1,0.7-0.1,1.3-0.2,1.8c5.2,0.3,9,1.5,11.5,3.5c2.5,2.1,3.7,4.9,3.7,8.5
		c0,1.6-0.3,3.2-0.8,4.6c-0.6,1.4-1.4,2.6-2.6,3.6c-1.2,1-2.6,1.8-4.4,2.4c-1.7,0.6-3.8,0.9-6.1,0.9c-0.9,0-1.9-0.1-2.9-0.2
		c-1-0.1-1.9-0.3-2.8-0.5c-0.9-0.2-1.7-0.4-2.4-0.6c-0.7-0.2-1.2-0.4-1.6-0.6l1.2-5.3c0.7,0.3,1.8,0.7,3.2,1.1
		c1.4,0.4,3.1,0.6,5.1,0.6c1.4,0,2.5-0.1,3.5-0.4c1-0.3,1.8-0.7,2.4-1.2c0.6-0.5,1.1-1.1,1.3-1.8C278,80.2,278.1,79.4,278.1,78.7z"
		/>
	<path class="st1" d="M307.9,78.7c0-1.2-0.2-2.2-0.7-3.1c-0.5-0.9-1.3-1.7-2.4-2.3c-1.1-0.6-2.7-1.1-4.6-1.4
		c-1.9-0.3-4.3-0.5-7.2-0.5c0.4-3.4,0.7-6.5,0.9-9.6c0.2-3,0.4-6.1,0.5-9.1h18.6v5.3h-13.2c0,0.6-0.1,1.3-0.1,2
		c-0.1,0.8-0.1,1.5-0.2,2.3c-0.1,0.8-0.1,1.5-0.2,2.2c-0.1,0.7-0.1,1.3-0.2,1.8c5.2,0.3,9,1.5,11.5,3.5c2.5,2.1,3.7,4.9,3.7,8.5
		c0,1.6-0.3,3.2-0.8,4.6c-0.6,1.4-1.4,2.6-2.6,3.6s-2.6,1.8-4.4,2.4c-1.7,0.6-3.8,0.9-6.1,0.9c-0.9,0-1.9-0.1-2.9-0.2
		c-1-0.1-1.9-0.3-2.8-0.5c-0.9-0.2-1.7-0.4-2.4-0.6c-0.7-0.2-1.2-0.4-1.6-0.6l1.2-5.3c0.7,0.3,1.8,0.7,3.2,1.1
		c1.4,0.4,3.1,0.6,5.1,0.6c1.4,0,2.5-0.1,3.5-0.4c1-0.3,1.8-0.7,2.4-1.2c0.6-0.5,1.1-1.1,1.3-1.8C307.8,80.2,307.9,79.4,307.9,78.7z
		"/>
	<path class="st1" d="M342.8,62.2c0,1.3-0.3,2.5-0.8,3.7c-0.5,1.2-1.2,2.4-2,3.5c-0.8,1.1-1.8,2.2-2.8,3.3c-1,1.1-2.1,2.1-3.1,3.1
		c-0.6,0.5-1.2,1.2-1.9,1.9s-1.4,1.5-2,2.2c-0.6,0.7-1.2,1.4-1.6,2.1c-0.5,0.7-0.7,1.2-0.7,1.7H344v5.3h-23.1c0-0.3-0.1-0.6-0.1-1
		s0-0.7,0-0.9c0-1.7,0.3-3.2,0.8-4.6c0.5-1.4,1.3-2.7,2.1-4c0.9-1.2,1.9-2.4,2.9-3.5c1.1-1.1,2.2-2.1,3.2-3.2
		c0.8-0.8,1.6-1.6,2.4-2.4c0.8-0.8,1.4-1.5,2-2.3c0.6-0.8,1-1.5,1.4-2.3c0.3-0.8,0.5-1.6,0.5-2.4c0-1.8-0.5-3.1-1.6-3.9
		c-1-0.8-2.3-1.2-3.8-1.2c-1,0-1.9,0.1-2.7,0.4c-0.8,0.3-1.6,0.6-2.2,1c-0.6,0.4-1.2,0.8-1.7,1.2c-0.5,0.4-0.9,0.7-1.1,1l-3.1-4.5
		c1.5-1.4,3.2-2.5,5.2-3.4c2-0.9,4.1-1.3,6.4-1.3c3.9,0,6.7,0.9,8.6,2.8C341.9,56.5,342.8,59,342.8,62.2z"/>
</g>
<g>
	<path class="st1" d="M68.5,27.4c-0.7-1.2-1.5-2.5-2.4-3.8c-0.9-1.4-1.8-2.8-2.7-4.1c-0.9-1.4-1.9-2.7-2.9-4.1
		c-1-1.3-1.9-2.5-2.8-3.5v15.6h-3.9V5.7h3.2c0.8,0.9,1.7,1.9,2.7,3.1c1,1.2,1.9,2.5,2.9,3.8s1.9,2.6,2.8,3.9
		c0.9,1.3,1.7,2.5,2.4,3.7V5.7h3.9v21.8H68.5z"/>
	<path class="st1" d="M90.4,26.9c-0.7,0.2-1.7,0.4-2.9,0.6c-1.2,0.2-2.5,0.3-3.9,0.3c-1.3,0-2.4-0.2-3.3-0.6
		c-0.9-0.4-1.6-0.9-2.1-1.6s-0.9-1.5-1.1-2.4s-0.3-2-0.3-3.1V11h3.8v8.6c0,1.8,0.3,3,0.8,3.8c0.5,0.8,1.4,1.1,2.7,1.1
		c0.5,0,0.9,0,1.5-0.1c0.5,0,0.9-0.1,1.1-0.2V11h3.8V26.9z"/>
	<path class="st1" d="M104.6,18.8c0-1.7-0.2-3-0.6-3.7c-0.4-0.8-1.2-1.1-2.4-1.1c-0.4,0-0.9,0-1.4,0.1c-0.5,0.1-0.9,0.1-1.1,0.2
		v13.3h-3.8V11.5c0.7-0.2,1.7-0.4,2.9-0.6c1.2-0.2,2.4-0.3,3.8-0.3c1.1,0,2.1,0.1,2.8,0.4c0.7,0.3,1.3,0.7,1.8,1.2
		c0.2-0.2,0.5-0.3,0.9-0.5c0.4-0.2,0.8-0.4,1.2-0.5c0.4-0.2,0.9-0.3,1.4-0.4c0.5-0.1,1-0.2,1.5-0.2c1.3,0,2.3,0.2,3.2,0.5
		c0.8,0.4,1.5,0.9,1.9,1.5c0.5,0.7,0.8,1.5,1,2.4c0.2,0.9,0.3,2,0.3,3.1v9.2h-3.8v-8.6c0-1.7-0.2-3-0.6-3.7
		c-0.4-0.8-1.2-1.1-2.4-1.1c-0.6,0-1.2,0.1-1.7,0.3c-0.5,0.2-1,0.4-1.2,0.6c0.2,0.5,0.3,1.1,0.3,1.7c0.1,0.6,0.1,1.2,0.1,1.9v9.1
		h-3.8V18.8z"/>
	<path class="st1" d="M121.5,19.3c0-1.4,0.2-2.7,0.6-3.8s1-2,1.7-2.7c0.7-0.7,1.5-1.3,2.4-1.6c0.9-0.4,1.9-0.5,2.8-0.5
		c2.3,0,4,0.7,5.3,2.1c1.3,1.4,1.9,3.5,1.9,6.3c0,0.2,0,0.4,0,0.7c0,0.3,0,0.5,0,0.7h-10.8c0.1,1.3,0.6,2.3,1.4,3.1
		c0.8,0.7,2,1.1,3.6,1.1c0.9,0,1.8-0.1,2.5-0.3c0.8-0.2,1.4-0.3,1.8-0.5l0.5,3.1c-0.2,0.1-0.5,0.2-0.9,0.3c-0.4,0.1-0.8,0.2-1.3,0.3
		c-0.5,0.1-1,0.2-1.5,0.2s-1.1,0.1-1.7,0.1c-1.4,0-2.7-0.2-3.8-0.6c-1.1-0.4-1.9-1-2.6-1.8c-0.7-0.8-1.2-1.7-1.5-2.7
		C121.6,21.7,121.5,20.5,121.5,19.3z M132.5,17.6c0-0.5-0.1-1-0.2-1.5c-0.1-0.5-0.4-0.9-0.6-1.2c-0.3-0.3-0.6-0.6-1-0.8
		c-0.4-0.2-0.9-0.3-1.5-0.3c-0.6,0-1.1,0.1-1.5,0.3c-0.4,0.2-0.8,0.5-1.1,0.9c-0.3,0.4-0.5,0.8-0.7,1.2c-0.2,0.5-0.3,0.9-0.3,1.4
		H132.5z"/>
	<path class="st1" d="M149.7,14.4c-0.3-0.1-0.7-0.2-1.3-0.3c-0.6-0.1-1.2-0.2-1.9-0.2c-0.4,0-0.9,0-1.3,0.1c-0.5,0.1-0.8,0.2-1,0.2
		v13.2h-3.8V11.8c0.7-0.3,1.6-0.5,2.7-0.8c1.1-0.2,2.3-0.4,3.7-0.4c0.3,0,0.5,0,0.9,0c0.3,0,0.7,0.1,1,0.1c0.3,0.1,0.7,0.1,1,0.2
		c0.3,0.1,0.6,0.1,0.8,0.2L149.7,14.4z"/>
	<path class="st1" d="M167.8,19.2c0,1.3-0.2,2.5-0.6,3.5c-0.4,1.1-0.9,2-1.6,2.7c-0.7,0.8-1.5,1.3-2.5,1.8c-1,0.4-2,0.6-3.2,0.6
		c-1.2,0-2.2-0.2-3.2-0.6c-1-0.4-1.8-1-2.5-1.8c-0.7-0.8-1.2-1.7-1.6-2.7c-0.4-1.1-0.6-2.3-0.6-3.5s0.2-2.5,0.6-3.5
		c0.4-1.1,0.9-2,1.6-2.7c0.7-0.8,1.5-1.3,2.5-1.7c1-0.4,2-0.6,3.2-0.6c1.2,0,2.2,0.2,3.2,0.6c1,0.4,1.8,1,2.5,1.7
		c0.7,0.8,1.2,1.7,1.6,2.7C167.6,16.7,167.8,17.9,167.8,19.2z M163.9,19.2c0-1.6-0.4-2.9-1.1-3.9c-0.7-1-1.7-1.4-2.9-1.4
		c-1.3,0-2.2,0.5-2.9,1.4c-0.7,1-1.1,2.2-1.1,3.9c0,1.7,0.4,3,1.1,3.9c0.7,1,1.7,1.4,2.9,1.4c1.3,0,2.2-0.5,2.9-1.4
		C163.6,22.2,163.9,20.8,163.9,19.2z"/>
	<path class="st1" d="M185.5,27.4c-1.6-3.4-3.1-6.9-4.5-10.6c-1.5-3.7-2.8-7.4-4.1-11.1h4.4c0.5,1.5,1,3,1.5,4.5
		c0.5,1.5,1,3,1.6,4.5c0.5,1.5,1,2.9,1.6,4.3c0.5,1.4,1,2.6,1.5,3.8c0.5-1.2,1-2.4,1.5-3.8c0.5-1.4,1.1-2.8,1.6-4.3
		c0.5-1.5,1.1-3,1.6-4.5c0.5-1.5,1-3,1.5-4.5h4.2c-1.3,3.7-2.6,7.4-4.1,11.1c-1.5,3.7-3,7.3-4.5,10.6H185.5z"/>
	<path class="st1" d="M198.3,19.3c0-1.4,0.2-2.7,0.6-3.8s1-2,1.7-2.7c0.7-0.7,1.5-1.3,2.4-1.6c0.9-0.4,1.9-0.5,2.8-0.5
		c2.3,0,4,0.7,5.3,2.1c1.3,1.4,1.9,3.5,1.9,6.3c0,0.2,0,0.4,0,0.7c0,0.3,0,0.5,0,0.7h-10.8c0.1,1.3,0.6,2.3,1.4,3.1
		c0.8,0.7,2,1.1,3.6,1.1c0.9,0,1.8-0.1,2.5-0.3c0.8-0.2,1.4-0.3,1.8-0.5l0.5,3.1c-0.2,0.1-0.5,0.2-0.9,0.3c-0.4,0.1-0.8,0.2-1.3,0.3
		c-0.5,0.1-1,0.2-1.5,0.2s-1.1,0.1-1.7,0.1c-1.4,0-2.7-0.2-3.8-0.6c-1.1-0.4-1.9-1-2.6-1.8s-1.2-1.7-1.5-2.7
		C198.5,21.7,198.3,20.5,198.3,19.3z M209.4,17.6c0-0.5-0.1-1-0.2-1.5c-0.1-0.5-0.4-0.9-0.6-1.2c-0.3-0.3-0.6-0.6-1-0.8
		c-0.4-0.2-0.9-0.3-1.5-0.3c-0.6,0-1.1,0.1-1.5,0.3c-0.4,0.2-0.8,0.5-1.1,0.9c-0.3,0.4-0.5,0.8-0.7,1.2c-0.2,0.5-0.3,0.9-0.3,1.4
		H209.4z"/>
	<path class="st1" d="M226.5,14.4c-0.3-0.1-0.7-0.2-1.3-0.3c-0.6-0.1-1.2-0.2-1.9-0.2c-0.4,0-0.9,0-1.3,0.1c-0.5,0.1-0.8,0.2-1,0.2
		v13.2h-3.8V11.8c0.7-0.3,1.6-0.5,2.7-0.8c1.1-0.2,2.3-0.4,3.7-0.4c0.3,0,0.5,0,0.9,0c0.3,0,0.7,0.1,1,0.1c0.3,0.1,0.7,0.1,1,0.2
		c0.3,0.1,0.6,0.1,0.8,0.2L226.5,14.4z"/>
	<path class="st1" d="M243.7,26.9c-0.8,0.2-1.7,0.4-2.8,0.6c-1.1,0.2-2.3,0.3-3.6,0.3c-1.3,0-2.5-0.2-3.5-0.6c-1-0.4-1.9-1-2.6-1.7
		c-0.7-0.7-1.3-1.6-1.7-2.7c-0.4-1.1-0.6-2.2-0.6-3.6c0-1.3,0.2-2.5,0.5-3.5c0.3-1.1,0.8-2,1.4-2.7c0.6-0.8,1.4-1.3,2.3-1.7
		c0.9-0.4,1.9-0.6,3.1-0.6c0.8,0,1.5,0.1,2.1,0.3c0.6,0.2,1.1,0.4,1.6,0.6V3.7l3.8-0.6V26.9z M232.8,19.2c0,1.7,0.4,3,1.2,3.9
		c0.8,1,1.9,1.4,3.3,1.4c0.6,0,1.1,0,1.6-0.1c0.4-0.1,0.8-0.1,1.1-0.2v-9.4c-0.3-0.2-0.8-0.4-1.3-0.6c-0.6-0.2-1.1-0.3-1.8-0.3
		c-1.4,0-2.4,0.5-3,1.4C233.1,16.3,232.8,17.5,232.8,19.2z"/>
	<path class="st1" d="M247.6,19.3c0-1.4,0.2-2.7,0.6-3.8c0.4-1.1,1-2,1.7-2.7c0.7-0.7,1.5-1.3,2.4-1.6c0.9-0.4,1.9-0.5,2.8-0.5
		c2.3,0,4,0.7,5.3,2.1c1.3,1.4,1.9,3.5,1.9,6.3c0,0.2,0,0.4,0,0.7c0,0.3,0,0.5,0,0.7h-10.8c0.1,1.3,0.6,2.3,1.4,3.1
		c0.8,0.7,2,1.1,3.6,1.1c0.9,0,1.8-0.1,2.5-0.3c0.8-0.2,1.4-0.3,1.8-0.5l0.5,3.1c-0.2,0.1-0.5,0.2-0.9,0.3c-0.4,0.1-0.8,0.2-1.3,0.3
		c-0.5,0.1-1,0.2-1.5,0.2c-0.5,0.1-1.1,0.1-1.7,0.1c-1.4,0-2.7-0.2-3.8-0.6c-1.1-0.4-1.9-1-2.6-1.8c-0.7-0.8-1.2-1.7-1.5-2.7
		C247.8,21.7,247.6,20.5,247.6,19.3z M258.7,17.6c0-0.5-0.1-1-0.2-1.5c-0.1-0.5-0.4-0.9-0.6-1.2c-0.3-0.3-0.6-0.6-1-0.8
		c-0.4-0.2-0.9-0.3-1.5-0.3c-0.6,0-1.1,0.1-1.5,0.3c-0.4,0.2-0.8,0.5-1.1,0.9c-0.3,0.4-0.5,0.8-0.7,1.2c-0.2,0.5-0.3,0.9-0.3,1.4
		H258.7z"/>
</g>
<path class="st1" d="M3,82.5c0,0,2.2,40.7,25.2,42.4c0,0,18.4,3.7,15.3-15.7s-7.7-18-15-18c-7.1,0-9.5,2.2-11.7-27.5
	s6.6-27.2,6.6-27.2s16.6,3.8,20.4-8.7S45.6,2.1,34.8,3s-20.3,2.6-27,20.3S3,82.5,3,82.5z"/>
</svg>
