<?xml version="1.0" encoding="utf-8"?>
<!-- Generator: Adobe Illustrator 21.1.0, SVG Export Plug-In . SVG Version: 6.00 Build 0)  -->
<svg version="1.1" id="_x33_8d25389-fcf7-44c3-8bf1-59364dd1b50d"
	 xmlns="http://www.w3.org/2000/svg" xmlns:xlink="http://www.w3.org/1999/xlink" x="0px" y="0px" width="394.1px" height="349.3px"
	 viewBox="0 0 394.1 349.3" style="enable-background:new 0 0 394.1 349.3;" xml:space="preserve">
<style type="text/css">
	.st0{fill:#B4C420;}
	.st1{fill:#454544;}
</style>
<title>170330_Logo_RGB</title>
<path class="st0" d="M244.4,318.4c65.5-0.1,118.6-53.2,118.7-118.7c0-0.1,0-0.2,0-0.2h-30.9c0,0.1,0,0.2,0,0.2
	c-0.1,48.5-39.3,87.8-87.8,87.8h-0.1L244.4,318.4C244.3,318.4,244.3,318.4,244.4,318.4z"/>
<path class="st1" d="M149.6,30.9v30.9c-48.4,0.1-87.7,39.4-87.7,87.8c0,0.1,0,0.2,0,0.2H31c0-0.1,0-0.2,0-0.2
	C31,84.1,84.1,31,149.6,30.9z"/>
<path class="st1" d="M191.2,118.7V148h-11.4v-27.4c0-4.9-1.9-6.3-4.2-6.3c-3.1,0-5.2,2.2-7.4,6V148h-11.4v-27.4
	c0-4.9-1.9-6.3-4.2-6.3c-3.1,0-5.2,2.2-7.3,6V148h-11.4v-40.9h9.9l0.9,5.3c3.1-4.3,7-6.6,12.4-6.6c4.6-0.2,8.8,2.7,10.2,7
	c3.3-4.5,7.2-7,12.7-7C186.6,105.8,191.2,110.6,191.2,118.7z"/>
<path class="st0" d="M121.9,176.7l-7,8.1c-3.2-3-7.5-4.7-11.9-4.7c-8.7,0-15.2,6.6-15.2,23.7c0,16.5,6.3,23.4,15.3,23.4
	c5.5,0,9.3-2.6,13.1-5.5l6.4,8.2c-5.3,5.3-12.6,8.3-20.2,8.2c-17.4,0-29.4-12-29.4-34.4c0-22.1,12.6-34.2,29-34.2
	C110.8,169.6,116.5,172.1,121.9,176.7z"/>
<path class="st0" d="M194.5,236.6h-17L158,171.1h15l13.4,54l13.4-54h13.7L194.5,236.6z"/>
<path class="st0" d="M237.4,236.6h-12.5v-65.5h12.5V236.6z"/>
<path class="st0" d="M294.4,177.8l-6.6,7.7c-4.6-3.8-9.2-5.5-14.5-5.5c-5.7,0-9.6,2.5-9.6,7.1c0,4.5,2.5,6.4,13.2,9.8
	c11.8,3.8,19.4,8.7,19.4,20.8c0,12-9.5,20.5-25.4,20.5c-10.9,0-18.8-3.9-24.2-9.2l7.2-7.9c4.7,4.1,9.9,6.5,16.7,6.5
	c6.7,0,11.3-3.2,11.3-9c0-5.2-2.6-7.5-12.5-10.5c-14.2-4.5-19.9-10.1-19.9-20.1c0-11.2,9.7-18.5,22.9-18.5
	C282.1,169.6,288.7,172.5,294.4,177.8z"/>
<path class="st0" d="M146.4,236.2h-12.5V171h12.5V236.2z"/>
<polygon class="st1" points="221.2,107.1 214.8,136.3 207.1,107.1 196.5,107.1 206.6,145.1 203.3,158.6 216.6,158.6 231.7,107.1 
	231.7,107.1 "/>
</svg>
